<?xml version="1.0" encoding="UTF-8"?><svg id="a" xmlns="http://www.w3.org/2000/svg" viewBox="0 0 154.88 192.16"><defs><style>.b{fill:#723c18;}.c{fill:#b84c26;}.d{fill:#01509f;}.e{fill:#9a9aa1;}</style></defs><path class="e" d="M81.2,0c.58,.04,1.15,.1,1.73,.12,3.7,.11,7.4,.16,11.1,.32,3.31,.14,6.61,.36,9.92,.59,2.78,.2,5.57,.42,8.35,.7,3.12,.32,6.23,.71,9.35,1.11,3.97,.51,7.92,1.18,11.84,1.98,4.82,.98,9.58,2.15,14.18,3.91,1.68,.64,3.33,1.35,4.85,2.34,.7,.46,1.37,.99,1.99,1.56,.51,.46,.49,.64-.01,1.12-.48,.46-1,.9-1.55,1.27-1.77,1.2-3.72,2.03-5.71,2.77-3.88,1.45-7.88,2.49-11.92,3.36-5.2,1.13-10.45,2.01-15.74,2.63-4.17,.49-8.34,.92-12.52,1.3-3.19,.29-6.39,.47-9.59,.66-7.24,.43-14.49,.59-21.75,.52-4.78-.05-9.57-.15-14.35-.32-3.65-.13-7.31-.34-10.95-.65-4.61-.38-9.22-.86-13.82-1.37-5.01-.55-9.99-1.36-14.93-2.37-4.92-1-9.79-2.2-14.49-4.01-1.54-.59-3.04-1.26-4.45-2.12-.93-.57-1.82-1.18-2.49-2.06C.18,13.31,.08,13.3,0,13.26c0-.04,0-.09,0-.13,.09-.06,.2-.1,.26-.18,.51-.66,1.14-1.19,1.85-1.61,1-.59,2.01-1.19,3.07-1.68,2.77-1.29,5.68-2.21,8.63-3,8.35-2.27,16.87-3.58,25.45-4.54,3.37-.38,6.75-.69,10.14-.95,3.86-.29,7.72-.54,11.59-.72,3.69-.17,7.39-.21,11.09-.32,.58-.02,1.15-.08,1.73-.12h7.41Z"/><path class="b" d="M36.18,132.33c.24,.08,.42,.13,.6,.2,4.75,1.88,9.66,3.15,14.66,4.11,4.06,.78,8.16,1.31,12.28,1.67,5.14,.45,10.29,.65,15.44,.56,2.77-.05,5.54-.12,8.31-.29,8.4-.51,16.71-1.64,24.81-4.02,2.01-.59,3.97-1.34,5.96-2.02,.18-.06,.36-.13,.62-.22,.13,.75,.27,1.47,.39,2.19,.73,4.38,1.46,8.75,2.18,13.13,.84,5.1,1.68,10.21,2.53,15.31,.8,4.8,1.61,9.61,2.41,14.41,.43,2.58,.85,5.17,1.29,7.75,.05,.31-.01,.51-.27,.65-.57,.31-1.12,.66-1.71,.92-2.35,1.02-4.83,1.65-7.33,2.19-3.56,.77-7.15,1.3-10.76,1.72-4.02,.47-8.05,.79-12.09,1.05-8.48,.54-16.96,.62-25.45,.44-3.89-.08-7.79-.28-11.68-.51-4.8-.29-9.58-.74-14.34-1.42-4.01-.57-7.99-1.26-11.87-2.46-1.32-.41-2.64-.85-3.85-1.53-1-.56-.98-.56-.79-1.66,.59-3.52,1.17-7.05,1.76-10.57,.67-4.01,1.33-8.03,2-12.04,.63-3.8,1.26-7.6,1.9-11.4,.67-4.06,1.35-8.11,2.02-12.17,.28-1.69,.56-3.37,.84-5.06,.05-.29,.11-.59,.17-.92Z"/><path class="b" d="M37.49,124.45l2.44-14.61c.84,.21,1.61,.41,2.39,.59,2.91,.69,5.86,1.17,8.82,1.52,2.71,.32,5.42,.62,8.13,.86,2.2,.19,4.4,.32,6.61,.42,5.04,.23,10.08,.36,15.13,.24,3.89-.09,7.79-.25,11.68-.47,2.76-.15,5.53-.39,8.28-.7,4.67-.51,9.32-1.14,13.86-2.41,.06-.02,.13-.01,.28-.02,.84,4.84,1.62,9.7,2.45,14.58-.27,.12-.5,.24-.74,.33-4.05,1.68-8.26,2.85-12.54,3.76-4.28,.91-8.6,1.55-12.95,1.99-3.79,.38-7.59,.6-11.4,.67-3.4,.06-6.8,0-10.19-.19-8.51-.5-16.93-1.62-25.13-4.03-2.15-.63-4.25-1.46-6.37-2.2-.22-.08-.43-.19-.73-.33Z"/><path class="d" d="M59.59,105.09c5.96-20.42,11.91-40.79,17.86-61.19,.27,.4,17.79,60.21,17.94,61.2-3.81,.97-31.11,.98-35.8,0Z"/><path class="c" d="M98.01,86.51c-5.15-17.56-10.27-35.01-15.42-52.57,.4-.02,.74-.06,1.07-.06,2.79-.07,5.58-.09,8.37-.21,3.68-.16,7.35-.37,11.02-.6,2.44-.15,4.88-.36,7.31-.57,1.53-.13,3.06-.31,4.59-.46,.25-.03,.51-.04,.77-.05-.02,.53-17.06,52.99-17.71,54.52Z"/><path class="c" d="M39.24,31.96c11.06,1.19,22.07,1.81,33.22,1.93-5.15,17.55-10.26,34.99-15.37,52.4-.08,.04-.1,.06-.11,.06-.02,0-.04-.03-.04-.05-5.88-18-11.76-35.99-17.63-53.99-.03-.08-.03-.17-.06-.36Z"/><path class="d" d="M100.14,104.71c5.83-17.85,11.63-35.6,17.49-53.5,.1,.31,.17,.47,.21,.64,2.46,9.76,4.93,19.51,7.39,29.27,.64,2.54,1.27,5.08,1.94,7.61,.14,.52,.05,.87-.33,1.26-3.54,3.66-7.05,7.34-10.58,11.01-.26,.27-.61,.49-.96,.62-2.15,.83-4.38,1.38-6.63,1.79-2.68,.48-5.38,.85-8.08,1.26-.1,.02-.21,.02-.44,.04Z"/><path class="d" d="M37.46,51.34c5.8,17.75,11.6,35.5,17.44,53.37-.75-.08-1.39-.14-2.02-.23-3.3-.44-6.59-.98-9.82-1.83-1.13-.3-2.24-.66-3.34-1.04-.33-.11-.66-.33-.91-.59-3.58-3.71-7.13-7.44-10.71-11.15-.32-.33-.36-.63-.25-1.04,2.61-10.32,5.22-20.64,7.82-30.96,.5-1.97,1-3.94,1.5-5.91,.05-.2,.11-.4,.17-.6l.12-.02Z"/><path class="c" d="M23.11,76.07c-4.71-16.55-9.42-33.1-14.17-49.78,8.41,2.51,16.9,3.99,25.55,5.11l-11.25,44.67h-.12Z"/><path class="c" d="M120.55,31.39c8.63-1.13,17.1-2.58,25.49-5.09-4.72,16.63-9.4,33.16-14.09,49.69h-.16c-3.74-14.83-7.48-29.66-11.24-44.59Z"/><path class="c" d="M14.12,72.92c-.04-.05-.08-.1-.11-.15-3.56-5.01-6.7-10.26-9-15.98-1.71-4.23-2.87-8.62-3.57-13.13-.6-3.81-.92-7.65-1.05-11.51-.09-2.64-.15-5.28-.22-7.92,0-.11,0-.21,0-.31,.04-.01,.06-.02,.07-.02,.02,0,.05,.01,.05,.03,4.65,16.31,9.3,32.62,13.95,48.93l-.12,.06Z"/><path class="c" d="M140.82,72.81c4.63-16.26,9.27-32.53,13.9-48.79l.07,.02c0,1.4,.03,2.8,0,4.19-.04,1.86-.1,3.72-.2,5.58-.32,6.42-1.13,12.76-3.1,18.9-1.74,5.41-4.21,10.47-7.25,15.26-.94,1.48-1.94,2.92-2.92,4.38-.12,.18-.26,.34-.39,.5l-.11-.05Z"/></svg>